PathFileType	4	(X/Y/Z)	 control3min.trc
DataRate	CameraRate	NumFrames	NumMarkers	Units	OrigDataRate	OrigDataStartFrame	OrigNumFrames
200	200	11	35	m	200	876	1000
Frame#	Time	C7			LSH			RSH			MAN			RASI			LASI			HIPR			HIPL			RPSI			LPSI			COX			RTHI1			RTHI2			RTHI3			RTHI4			RSHA1			RSHA2			RSHA3			RSHA4			RHEEL			RMET5			RMET1			RTOE			LTHI1			LTHI2			LTHI3			LTHI4			LSHA1			LSHA2			LSHA3			LSHA4			LHEEL			LMET5			LMET1			LTOE			
		X1	Y1	Z1	X2	Y2	Z2	X3	Y3	Z3	X4	Y4	Z4	X5	Y5	Z5	X6	Y6	Z6	X7	Y7	Z7	X8	Y8	Z8	X9	Y9	Z9	X10	Y10	Z10	X11	Y11	Z11	X12	Y12	Z12	X13	Y13	Z13	X14	Y14	Z14	X15	Y15	Z15	X16	Y16	Z16	X17	Y17	Z17	X18	Y18	Z18	X19	Y19	Z19	X20	Y20	Z20	X21	Y21	Z21	X22	Y22	Z22	X23	Y23	Z23	X24	Y24	Z24	X25	Y25	Z25	X26	Y26	Z26	X27	Y27	Z27	X28	Y28	Z28	X29	Y29	Z29	X30	Y30	Z30	X31	Y31	Z31	X32	Y32	Z32	X33	Y33	Z33	X34	Y34	Z34	X35	Y35	Z35	
876	4.3800	-0.000000	0.000000	-0.000000	-0.000000	0.000000	-0.000000	-0.224246	1.305797	-0.385406	-0.150282	1.269450	-0.560979	-0.164052	0.885000	-0.436492	-0.158037	0.889281	-0.664752	-0.227414	0.933537	-0.411753	-0.220979	0.927736	-0.700370	-0.324719	0.919355	-0.503943	-0.324470	0.919189	-0.607542	-0.323111	0.931511	-0.551753	-0.244751	0.684389	-0.392753	-0.218060	0.631202	-0.390596	-0.160435	0.658150	-0.376611	-0.180982	0.716069	-0.378520	-0.214623	0.330038	-0.381640	-0.236929	0.293230	-0.387452	-0.182072	0.269515	-0.399920	-0.164961	0.305982	-0.398195	-0.368923	0.067629	-0.457989	-0.226644	0.028132	-0.388790	-0.188248	0.037856	-0.460347	-0.158947	0.028019	-0.457645	-0.230135	0.679855	-0.729573	-0.198934	0.626701	-0.727332	-0.140627	0.654402	-0.727903	-0.163134	0.710652	-0.730295	-0.228591	0.294546	-0.718853	-0.249346	0.259932	-0.716100	-0.193135	0.235391	-0.701618	-0.178852	0.276850	-0.707420	-0.377607	0.054192	-0.657365	-0.227597	0.028842	-0.716229	-0.188632	0.037376	-0.649433	-0.161151	0.026557	-0.645912	
877	4.3850	-0.000000	0.000000	-0.000000	-0.000000	0.000000	-0.000000	-0.224587	1.307895	-0.385727	-0.150401	1.271447	-0.561195	-0.163203	0.887240	-0.437029	-0.157767	0.891495	-0.664942	-0.226177	0.936459	-0.411897	-0.220639	0.930494	-0.700307	-0.324052	0.921451	-0.503661	-0.324032	0.921317	-0.607426	-0.322569	0.933472	-0.551545	-0.244234	0.686531	-0.392304	-0.217821	0.633197	-0.390263	-0.159942	0.659853	-0.376907	-0.180171	0.717883	-0.378775	-0.215768	0.331094	-0.381823	-0.237944	0.294205	-0.387640	-0.183006	0.270680	-0.400117	-0.166027	0.307205	-0.398367	-0.368883	0.068168	-0.457785	-0.226594	0.028130	-0.388841	-0.188205	0.037827	-0.460383	-0.158954	0.028012	-0.457695	-0.229943	0.681711	-0.729681	-0.198844	0.628517	-0.727254	-0.140494	0.656128	-0.727401	-0.162898	0.712411	-0.729935	-0.229120	0.295814	-0.718541	-0.249787	0.261129	-0.715891	-0.193576	0.236765	-0.701111	-0.179397	0.278261	-0.706839	-0.377456	0.054988	-0.657398	-0.227524	0.028869	-0.716042	-0.188538	0.037347	-0.649351	-0.161129	0.026546	-0.645870	
878	4.3900	-0.000000	0.000000	-0.000000	-0.000000	0.000000	-0.000000	-0.224870	1.310509	-0.386068	-0.150489	1.273974	-0.561435	-0.162300	0.889828	-0.437555	-0.157414	0.894111	-0.665130	-0.224671	0.939669	-0.412064	-0.220118	0.933599	-0.700208	-0.323282	0.923986	-0.503323	-0.323496	0.923871	-0.607307	-0.321935	0.935843	-0.551320	-0.243911	0.689047	-0.391906	-0.217846	0.635540	-0.390010	-0.159708	0.661815	-0.377223	-0.179532	0.719976	-0.378991	-0.217364	0.332303	-0.382035	-0.239317	0.295290	-0.387898	-0.184239	0.272083	-0.400308	-0.167472	0.308698	-0.398510	-0.368853	0.068802	-0.457568	-0.226550	0.028133	-0.388910	-0.188186	0.037810	-0.460408	-0.158976	0.028003	-0.457750	-0.229689	0.683991	-0.729812	-0.198758	0.630722	-0.727197	-0.140338	0.658168	-0.726909	-0.162563	0.714520	-0.729574	-0.230021	0.297216	-0.718185	-0.250538	0.262432	-0.715632	-0.194277	0.238333	-0.700616	-0.180270	0.279889	-0.706273	-0.377278	0.055902	-0.657294	-0.227470	0.028919	-0.715802	-0.188435	0.037317	-0.649255	-0.161110	0.026534	-0.645826	
879	4.3950	-0.000000	0.000000	-0.000000	-0.000000	0.000000	-0.000000	-0.225105	1.313597	-0.386440	-0.150548	1.277013	-0.561687	-0.161371	0.892725	-0.438050	-0.156995	0.897076	-0.665301	-0.222962	0.943112	-0.412271	-0.219450	0.936976	-0.700083	-0.322426	0.926940	-0.502940	-0.322884	0.926818	-0.607178	-0.321228	0.938617	-0.551075	-0.243795	0.691917	-0.391606	-0.218140	0.638215	-0.389859	-0.159718	0.664036	-0.377526	-0.179086	0.722352	-0.379180	-0.219339	0.333736	-0.382288	-0.240996	0.296562	-0.388200	-0.185722	0.273758	-0.400474	-0.169234	0.310507	-0.398612	-0.368814	0.069580	-0.457328	-0.226507	0.028146	-0.388992	-0.188179	0.037802	-0.460425	-0.159012	0.027996	-0.457811	-0.229407	0.686680	-0.729944	-0.198704	0.633305	-0.727139	-0.140189	0.660517	-0.726424	-0.162177	0.716955	-0.729213	-0.231281	0.298797	-0.717803	-0.251589	0.263889	-0.715340	-0.195225	0.240113	-0.700185	-0.181458	0.281770	-0.705776	-0.377065	0.056977	-0.657120	-0.227431	0.028991	-0.715525	-0.188324	0.037287	-0.649151	-0.161093	0.026523	-0.645779	
880	4.4000	-0.000000	0.000000	-0.000000	-0.000000	0.000000	-0.000000	-0.225297	1.317136	-0.386814	-0.150585	1.280495	-0.561949	-0.160434	0.895900	-0.438509	-0.156519	0.900360	-0.665447	-0.221123	0.946736	-0.412501	-0.218677	0.940576	-0.699940	-0.321500	0.930282	-0.502523	-0.322208	0.930143	-0.607056	-0.320474	0.941754	-0.550808	-0.243870	0.695159	-0.391404	-0.218682	0.641218	-0.389816	-0.159967	0.666537	-0.377821	-0.178828	0.725001	-0.379346	-0.221613	0.335450	-0.382573	-0.242919	0.298080	-0.388528	-0.187407	0.275748	-0.400585	-0.171245	0.312650	-0.398667	-0.368748	0.070540	-0.457052	-0.226457	0.028170	-0.389088	-0.188178	0.037802	-0.460437	-0.159062	0.027988	-0.457878	-0.229139	0.689762	-0.730056	-0.198724	0.636256	-0.727072	-0.140084	0.663171	-0.725942	-0.161777	0.719713	-0.728846	-0.232844	0.300628	-0.717419	-0.252902	0.265555	-0.715033	-0.196381	0.242157	-0.699859	-0.182914	0.283945	-0.705382	-0.376798	0.058287	-0.656954	-0.227395	0.029081	-0.715232	-0.188202	0.037258	-0.649043	-0.161077	0.026515	-0.645731	
881	4.4050	-0.000000	0.000000	-0.000000	-0.000000	0.000000	-0.000000	-0.225443	1.321086	-0.387208	-0.150607	1.284396	-0.562219	-0.159507	0.899329	-0.438929	-0.155994	0.903922	-0.665548	-0.219230	0.950523	-0.412738	-0.217824	0.944374	-0.699798	-0.320531	0.933993	-0.502086	-0.321483	0.933813	-0.606942	-0.319693	0.945231	-0.550539	-0.244117	0.698735	-0.391301	-0.219435	0.644557	-0.389859	-0.160454	0.669315	-0.378132	-0.178746	0.727932	-0.379490	-0.224100	0.337481	-0.382887	-0.245018	0.299915	-0.388854	-0.189248	0.278084	-0.400619	-0.173440	0.315149	-0.398672	-0.368612	0.071723	-0.456745	-0.226397	0.028205	-0.389188	-0.188167	0.037801	-0.460453	-0.159123	0.027983	-0.457951	-0.228918	0.693223	-0.730146	-0.198837	0.639557	-0.726993	-0.140057	0.666117	-0.725465	-0.161401	0.722784	-0.728478	-0.234651	0.302755	-0.717056	-0.254423	0.267509	-0.714739	-0.197701	0.244513	-0.699673	-0.184575	0.286447	-0.705113	-0.376455	0.059833	-0.656819	-0.227355	0.029188	-0.714941	-0.188074	0.037232	-0.648938	-0.161063	0.026510	-0.645682	
882	4.4100	-0.000000	0.000000	-0.000000	-0.000000	0.000000	-0.000000	-0.225600	1.325378	-0.387618	-0.150625	1.288694	-0.562488	-0.158598	0.903002	-0.439315	-0.155432	0.907721	-0.665601	-0.217335	0.954490	-0.412963	-0.216902	0.948375	-0.699668	-0.319536	0.938035	-0.501657	-0.320727	0.937796	-0.606827	-0.318896	0.949020	-0.550276	-0.244505	0.702625	-0.391276	-0.220356	0.648210	-0.389961	-0.161115	0.672380	-0.378427	-0.178816	0.731151	-0.379611	-0.226718	0.339853	-0.383196	-0.247234	0.302082	-0.389152	-0.191192	0.280756	-0.400565	-0.175752	0.317985	-0.398601	-0.368390	0.073156	-0.456405	-0.226323	0.028252	-0.389293	-0.188142	0.037797	-0.460475	-0.159193	0.027981	-0.458029	-0.228774	0.697028	-0.730218	-0.199068	0.643178	-0.726912	-0.140131	0.669339	-0.725001	-0.161079	0.726144	-0.728110	-0.236615	0.305224	-0.716739	-0.256086	0.269798	-0.714488	-0.199130	0.247229	-0.699646	-0.186367	0.289297	-0.704983	-0.376025	0.061655	-0.656771	-0.227297	0.029314	-0.714663	-0.187944	0.037209	-0.648841	-0.161050	0.026508	-0.645634	
883	4.4150	-0.000000	0.000000	-0.000000	-0.000000	0.000000	-0.000000	-0.225768	1.329975	-0.388048	-0.150645	1.293336	-0.562750	-0.157719	0.906906	-0.439668	-0.154838	0.911718	-0.665602	-0.215502	0.958657	-0.413156	-0.215930	0.952580	-0.699552	-0.318534	0.942372	-0.501254	-0.319946	0.942061	-0.606718	-0.318099	0.953097	-0.550031	-0.244996	0.706807	-0.391288	-0.221393	0.652160	-0.390086	-0.161903	0.675747	-0.378693	-0.179005	0.734659	-0.379715	-0.229403	0.342555	-0.383465	-0.249511	0.304573	-0.389396	-0.193198	0.283754	-0.400421	-0.178134	0.321157	-0.398436	-0.368117	0.074886	-0.455975	-0.226229	0.028312	-0.389396	-0.188103	0.037792	-0.460499	-0.159271	0.027982	-0.458109	-0.228724	0.701135	-0.730283	-0.199431	0.647082	-0.726841	-0.140323	0.672808	-0.724552	-0.160839	0.729754	-0.727748	-0.238657	0.308045	-0.716499	-0.257823	0.272453	-0.714302	-0.200620	0.250287	-0.699774	-0.188224	0.292484	-0.704999	-0.375502	0.063757	-0.656841	-0.227212	0.029461	-0.714406	-0.187816	0.037192	-0.648755	-0.161041	0.026510	-0.645589	
884	4.4200	-0.000000	0.000000	-0.000000	-0.000000	0.000000	-0.000000	-0.225954	1.334843	-0.388494	-0.150697	1.298219	-0.563024	-0.156882	0.911017	-0.439991	-0.154214	0.915886	-0.665555	-0.213772	0.963017	-0.413303	-0.214923	0.956984	-0.699442	-0.317542	0.946966	-0.500891	-0.319149	0.946580	-0.606629	-0.317311	0.957411	-0.549811	-0.245557	0.711241	-0.391300	-0.222483	0.656375	-0.390187	-0.162757	0.679383	-0.378915	-0.179282	0.738432	-0.379798	-0.232099	0.345554	-0.383668	-0.251804	0.307372	-0.389562	-0.195230	0.287049	-0.400176	-0.180541	0.324627	-0.398176	-0.367807	0.076923	-0.455423	-0.226111	0.028387	-0.389494	-0.188047	0.037788	-0.460519	-0.159355	0.027987	-0.458190	-0.228779	0.705493	-0.730339	-0.199926	0.651223	-0.726790	-0.140640	0.676486	-0.724139	-0.160690	0.733581	-0.727399	-0.240704	0.311196	-0.716357	-0.259574	0.275448	-0.714203	-0.202120	0.253677	-0.700050	-0.190090	0.295987	-0.705160	-0.374874	0.066120	-0.657034	-0.227088	0.029633	-0.714179	-0.187687	0.037180	-0.648679	-0.161034	0.026515	-0.645544	
885	4.4250	-0.000000	0.000000	-0.000000	-0.000000	0.000000	-0.000000	-0.226169	1.339937	-0.388956	-0.150773	1.303288	-0.563309	-0.156092	0.915323	-0.440274	-0.153580	0.920179	-0.665463	-0.212182	0.967591	-0.413405	-0.213881	0.961580	-0.699331	-0.316572	0.951778	-0.500583	-0.318348	0.951307	-0.606548	-0.316536	0.961935	-0.549630	-0.246159	0.715869	-0.391279	-0.223590	0.660808	-0.390227	-0.163632	0.683247	-0.379082	-0.179620	0.742457	-0.379858	-0.234760	0.348809	-0.383779	-0.254075	0.310441	-0.389629	-0.197259	0.290604	-0.399825	-0.182940	0.328353	-0.397831	-0.367374	0.079197	-0.454836	-0.225965	0.028476	-0.389580	-0.187978	0.037788	-0.460530	-0.159443	0.027998	-0.458264	-0.228933	0.710051	-0.730397	-0.200537	0.655560	-0.726768	-0.141071	0.680334	-0.723777	-0.160643	0.737584	-0.727082	-0.242711	0.314611	-0.716330	-0.261287	0.278726	-0.714219	-0.203592	0.257346	-0.700460	-0.191911	0.299748	-0.705453	-0.374136	0.068660	-0.657304	-0.226918	0.029832	-0.713986	-0.187570	0.037174	-0.648618	-0.161037	0.026519	-0.645501	
886	4.4300	-0.000000	0.000000	-0.000000	-0.000000	0.000000	-0.000000	-0.226427	1.345213	-0.389431	-0.150891	1.308506	-0.563597	-0.155362	0.919799	-0.440512	-0.152944	0.924564	-0.665338	-0.210729	0.972386	-0.413477	-0.212822	0.966346	-0.699192	-0.315630	0.956759	-0.500346	-0.317549	0.956203	-0.606484	-0.315780	0.966628	-0.549493	-0.246773	0.720667	-0.391194	-0.224676	0.665413	-0.390186	-0.164487	0.687341	-0.379172	-0.179987	0.746695	-0.379896	-0.237355	0.352280	-0.383772	-0.256295	0.313734	-0.389571	-0.199256	0.294366	-0.399374	-0.185296	0.332284	-0.397380	-0.366855	0.081684	-0.454187	-0.225788	0.028584	-0.389652	-0.187895	0.037796	-0.460525	-0.159533	0.028012	-0.458328	-0.229179	0.714761	-0.730465	-0.201252	0.660048	-0.726794	-0.141601	0.684327	-0.723480	-0.160687	0.741727	-0.726800	-0.244634	0.318230	-0.716430	-0.262921	0.282196	-0.714358	-0.204989	0.261229	-0.700981	-0.193661	0.303710	-0.705861	-0.373286	0.071372	-0.657665	-0.226696	0.030056	-0.713829	-0.187461	0.037175	-0.648570	-0.161049	0.026520	-0.645459	
